<?xml version="1.0" standalone="no"?>
<!DOCTYPE svg PUBLIC "-//W3C//DTD SVG 1.1//EN" "http://www.w3.org/Graphics/SVG/1.1/DTD/svg11.dtd" >
<svg xmlns="http://www.w3.org/2000/svg">
<metadata></metadata>
<defs>
<font id="sweden_sansbold" horiz-adv-x="1234" >
<font-face units-per-em="2048" ascent="1536" descent="-512" />
<missing-glyph horiz-adv-x="491" />
<glyph unicode="&#xfb01;" horiz-adv-x="1261" d="M63 807v231h107v54q0 83 20 149.5t62 119t115 81t172 28.5h94v-239h-94q-107 0 -107 -139v-54h588v-807h201v-231h-621v231h158v576h-326v-807h-262v807h-107zM723 1305q0 69 48.5 117t117.5 48t117.5 -48t48.5 -117t-48.5 -117.5t-117.5 -48.5t-117.5 48.5t-48.5 117.5z " />
<glyph unicode="&#xfb02;" horiz-adv-x="1261" d="M63 807v231h107v54q0 83 20 149.5t62 119t115 81t172 28.5h481v-1239h201v-231h-621v231h158v1008h-219q-57 0 -82 -37t-25 -110v-54h180v-231h-180v-807h-262v807h-107z" />
<glyph unicode="&#xfb03;" horiz-adv-x="1849" d="M63 807v231h107v54q0 83 19.5 149.5t60.5 119t112.5 81t169.5 28.5q125 0 234 -67l-141 -195q-45 23 -86 23q-107 0 -107 -139v-54h326v54q0 83 19.5 149.5t62 119t115 81t171.5 28.5h95v-239h-95q-106 0 -106 -139v-54h588v-807h200v-231h-620v231h158v576h-326v-807 h-262v807h-326v-807h-262v807h-107zM1311 1305q0 69 48.5 117t117.5 48t117 -48t48 -117t-48 -117.5t-117 -48.5t-117.5 48.5t-48.5 117.5z" />
<glyph unicode="&#xfb04;" horiz-adv-x="1849" d="M63 807v231h107v54q0 83 19.5 149.5t60.5 119t112.5 81t169.5 28.5q125 0 234 -67l-141 -195q-45 23 -86 23q-107 0 -107 -139v-54h326v54q0 83 19.5 149.5t62 119t115 81t171.5 28.5h482v-1239h200v-231h-620v231h158v1008h-220q-57 0 -81.5 -37t-24.5 -110v-54h180 v-231h-180v-807h-262v807h-326v-807h-262v807h-107z" />
<glyph horiz-adv-x="0" />
<glyph horiz-adv-x="0" />
<glyph horiz-adv-x="682" />
<glyph unicode="&#xd;" horiz-adv-x="1024" />
<glyph unicode=" "  horiz-adv-x="491" />
<glyph unicode="&#x09;" horiz-adv-x="491" />
<glyph unicode="&#xa0;" horiz-adv-x="491" />
<glyph unicode="!" horiz-adv-x="587" d="M133 1051l10 407h303l9 -407l-70 -627h-184zM141 152q0 65 45 111t111 46q64 0 110 -46t46 -111q0 -66 -45.5 -111t-110.5 -45q-66 0 -111 45t-45 111z" />
<glyph unicode="&#x22;" horiz-adv-x="786" d="M127 1294l16 164h213l17 -164l-41 -262h-164zM414 1294l16 164h213l16 -164l-41 -262h-163z" />
<glyph unicode="#" horiz-adv-x="1058" d="M6 326l23 188h178l41 293h-178l22 188h182l41 299h203l-41 -299h193l41 299h202l-41 -299h181l-29 -188h-178l-41 -293h180l-24 -188h-181l-45 -326h-203l46 326h-193l-45 -326h-203l45 326h-176zM410 514h192l41 293h-192z" />
<glyph unicode="$" horiz-adv-x="1044" d="M70 481l221 54q22 -232 155 -283v385l-81 37q-127 56 -193 142t-66 226q0 173 94 283.5t246 136.5v144h172v-146q145 -28 230.5 -147t85.5 -305l-221 -54q-18 177 -95 236v-348l76 -33q50 -23 88 -45t76 -55.5t62.5 -72t39.5 -93.5t15 -121q0 -181 -99 -292.5 t-258 -135.5v-176h-172v176q-172 27 -274 156t-102 331zM352 1063q0 -90 94 -143v284q-94 -41 -94 -141zM618 252q48 16 78.5 55.5t30.5 98.5q0 56 -28 90.5t-81 62.5v-307z" />
<glyph unicode="%" horiz-adv-x="1574" d="M104 1108q0 -77 16 -139.5t43 -103.5t63.5 -69t75.5 -40.5t81 -12.5q55 0 104 20.5t91 62t67 114.5t25 168t-25 167.5t-67 113.5t-91 61t-104 20q-42 0 -81 -12t-75.5 -39.5t-63.5 -68.5t-43 -103t-16 -139zM252 -12l856 1482h211l-858 -1482h-209zM270 1108 q0 203 113 203q24 0 42 -7.5t36.5 -27.5t28.5 -62.5t10 -105.5q0 -207 -117 -207q-113 0 -113 207zM905 350q0 -95 24 -167.5t65 -114t89 -62t101 -20.5q55 0 104 20.5t91 62t66.5 114t24.5 167.5t-24.5 167.5t-66.5 113.5t-91 61.5t-104 20.5q-53 0 -101 -20.5t-89 -61.5 t-65 -113.5t-24 -167.5zM1071 350q0 203 113 203q24 0 42 -7.5t36 -27.5t28 -62.5t10 -105.5q0 -207 -116 -207q-113 0 -113 207z" />
<glyph unicode="&#x26;" horiz-adv-x="1345" d="M82 412q0 261 248 417q-68 88 -101.5 155.5t-33.5 148.5q0 146 106.5 241.5t284.5 95.5q171 0 270.5 -91.5t99.5 -245.5q0 -122 -63.5 -207.5t-190.5 -163.5l248 -291q47 92 54 231l221 -110q-11 -183 -111 -316l232 -276h-320l-92 106q-174 -118 -381 -118 q-218 0 -344.5 116t-126.5 308zM334 420q0 -85 59 -136t166 -51t215 64l-287 342q-72 -47 -112.5 -97t-40.5 -122zM457 1126q0 -38 20 -77.5t74 -98.5q78 48 114.5 87.5t36.5 92.5q0 51 -32 83t-90 32t-90.5 -32t-32.5 -87z" />
<glyph unicode="'" horiz-adv-x="575" d="M166 1294l16 164h213l15 -164l-41 -256h-162z" />
<glyph unicode="(" horiz-adv-x="688" d="M123 614q0 241 95.5 504t242.5 465h186q-235 -542 -235 -956q0 -237 64 -509.5t169 -527.5h-182q-155 198 -247.5 488.5t-92.5 535.5z" />
<glyph unicode=")" horiz-adv-x="688" d="M41 1583h186q147 -202 242.5 -465t95.5 -504q0 -245 -92.5 -535.5t-247.5 -488.5h-182q105 255 169 527.5t64 509.5q0 414 -235 956z" />
<glyph unicode="*" horiz-adv-x="802" d="M74 1049l100 65l68 16l-70 21l-98 66l90 157l106 -51l49 -53l-16 71l8 117h181l8 -117l-23 -77l55 59l107 51l90 -157l-98 -66l-72 -21l70 -16l100 -65l-90 -158l-109 53l-51 51l21 -69l-8 -119h-181l-8 119l19 69l-50 -51l-108 -53z" />
<glyph unicode="+" horiz-adv-x="1167" d="M96 539v229h373v373h229v-373h373v-229h-373v-373h-229v373h-373z" />
<glyph unicode="," horiz-adv-x="593" d="M141 152q0 65 45 111t111 46q64 0 110 -45.5t46 -107.5q0 -45 -23 -101l-106 -274h-174l55 239q-64 45 -64 132z" />
<glyph unicode="-" horiz-adv-x="892" d="M109 461v229h675v-229h-675z" />
<glyph unicode="." horiz-adv-x="593" d="M141 152q0 65 45 111t111 46q64 0 110 -46t46 -111q0 -66 -45.5 -111t-110.5 -45q-66 0 -111 45t-45 111z" />
<glyph unicode="/" horiz-adv-x="751" d="M16 -12l490 1482h229l-491 -1482h-228z" />
<glyph unicode="0" horiz-adv-x="1298" d="M82 729q0 159 32.5 286.5t86.5 211t128 139.5t153.5 80t166.5 24q86 0 165.5 -24t153.5 -80t128.5 -139.5t87.5 -211t33 -286.5t-33 -286.5t-87.5 -211t-128.5 -139.5t-153.5 -80t-165.5 -24q-87 0 -166.5 24t-153.5 80t-128 139.5t-86.5 211t-32.5 286.5zM358 727 q0 -118 17 -215l422 666q-52 43 -148 43q-44 0 -82.5 -11.5t-78 -44.5t-67.5 -86.5t-45.5 -143.5t-17.5 -208zM518 270q51 -32 131 -32q43 0 81 11.5t77.5 44.5t68 85.5t46.5 142t18 207.5q0 109 -14 186z" />
<glyph unicode="1" horiz-adv-x="985" d="M102 0v238h260v876l-176 -147l-80 237l283 254h246v-1220h258v-238h-791z" />
<glyph unicode="2" horiz-adv-x="1075" d="M61 0v227l521 553q68 73 97.5 128t29.5 120q0 89 -42 141t-124 52q-91 0 -142 -75t-51 -208h-274q0 252 128 392t339 140q203 0 322.5 -118.5t119.5 -317.5q0 -72 -15.5 -133t-48 -113t-60.5 -86t-74 -84l-6 -6t-5 -5.5t-6 -6.5l-311 -336h555v-264h-953z" />
<glyph unicode="3" horiz-adv-x="1089" d="M82 461h276q0 -108 50.5 -165.5t146.5 -57.5q87 0 131.5 48.5t44.5 139.5q0 94 -46.5 146.5t-135.5 52.5h-84v243h84q77 0 118.5 44t41.5 128q0 85 -42 133t-118 48q-84 0 -129 -58t-45 -166h-277q0 224 123 348.5t328 124.5q199 0 317.5 -113t118.5 -302 q0 -104 -37 -175t-108 -126q168 -118 168 -338q0 -200 -123 -314t-330 -114q-216 0 -344.5 124t-128.5 349z" />
<glyph unicode="4" horiz-adv-x="1087" d="M51 293v178l559 987h275v-930h153v-235h-153v-293h-273v293h-561zM381 528h231v408z" />
<glyph unicode="5" horiz-adv-x="1126" d="M82 422h276q0 -89 50 -136.5t141 -47.5q109 0 164 71t55 203q0 129 -52 197.5t-155 68.5q-72 0 -125 -33.5t-76 -93.5h-266l103 807h821v-264h-580l-28 -207q66 39 163 39q216 0 343.5 -136t127.5 -382q0 -248 -132 -384t-363 -136q-212 0 -339.5 113t-127.5 321z" />
<glyph unicode="6" horiz-adv-x="1126" d="M82 457q0 223 139 440l354 561h326l-330 -504q218 0 345.5 -126.5t127.5 -356.5q0 -229 -127 -356t-346 -127q-220 0 -354.5 126.5t-134.5 342.5zM358 471q0 -112 54.5 -172.5t154.5 -60.5t150.5 60.5t50.5 172.5t-51 174t-150 62q-100 0 -154.5 -61.5t-54.5 -174.5z" />
<glyph unicode="7" horiz-adv-x="1011" d="M33 1194v264h946v-219l-561 -1239h-297l547 1194h-635z" />
<glyph unicode="8" horiz-adv-x="1101" d="M82 420q0 225 160 346q-111 111 -111 297q0 192 113 299.5t307 107.5q195 0 308.5 -108t113.5 -305q0 -186 -111 -291q158 -119 158 -346q0 -204 -128 -318t-341 -114t-341 114t-128 318zM358 428q0 -94 50 -142t143 -48q94 0 143 48t49 142t-49.5 148.5t-142.5 54.5 t-143 -54t-50 -149zM408 1053q0 -82 37 -128t106 -46q70 0 107.5 46t37.5 128t-37 125t-108 43q-69 0 -106 -43t-37 -125z" />
<glyph unicode="9" horiz-adv-x="1126" d="M82 987q0 229 127.5 356t345.5 127q220 0 354.5 -127.5t134.5 -345.5q0 -214 -139 -436l-354 -561h-326l330 504q-218 0 -345.5 126.5t-127.5 356.5zM358 987q0 -112 50.5 -173.5t148.5 -61.5q100 0 155.5 61.5t55.5 173.5t-55.5 173t-155.5 61q-98 0 -148.5 -61 t-50.5 -173z" />
<glyph unicode=":" horiz-adv-x="593" d="M141 152q0 65 45 111t111 46q64 0 110 -46t46 -111q0 -66 -45.5 -111t-110.5 -45q-66 0 -111 45t-45 111zM141 565q0 65 45 110.5t111 45.5q65 0 110.5 -45.5t45.5 -110.5q0 -66 -45.5 -110.5t-110.5 -44.5q-66 0 -111 44.5t-45 110.5z" />
<glyph unicode=";" horiz-adv-x="593" d="M141 152q0 65 45 111t111 46q64 0 110 -45.5t46 -107.5q0 -45 -23 -101l-106 -274h-174l55 239q-64 45 -64 132zM141 565q0 65 45 110.5t111 45.5q65 0 110.5 -45.5t45.5 -110.5q0 -66 -45.5 -110.5t-110.5 -44.5q-66 0 -111 44.5t-45 110.5z" />
<glyph unicode="&#x3c;" horiz-adv-x="1167" d="M96 561v187l975 415v-248l-629 -260l629 -260v-250z" />
<glyph unicode="=" horiz-adv-x="1167" d="M96 334v229h975v-229h-975zM96 743v230h975v-230h-975z" />
<glyph unicode="&#x3e;" horiz-adv-x="1167" d="M96 145v250l629 260l-629 260v248l975 -415v-187z" />
<glyph unicode="?" horiz-adv-x="1034" d="M59 1018q0 217 116 334.5t321 117.5q192 0 312 -102.5t120 -267.5q0 -100 -43.5 -184t-124.5 -179l-96 -112q-32 -38 -45 -67t-13 -71v-63h-276v80q0 60 13.5 102t47.5 88l117 158q48 63 69.5 95t38.5 71.5t17 73.5q0 57 -37 93t-102 36q-79 0 -119.5 -52t-40.5 -151 h-275zM305 152q0 65 47 111t117 46q67 0 115.5 -46t48.5 -111q0 -66 -48 -111t-116 -45q-70 0 -117 45t-47 111z" />
<glyph unicode="@" horiz-adv-x="1536" d="M78 317q0 219 101.5 396.5t281.5 278t403 100.5q270 0 432 -150.5t162 -433.5q0 -238 -110 -389.5t-265 -151.5q-139 0 -204 127q-119 -127 -254 -127q-82 0 -138.5 49t-80 119t-23.5 152q0 130 60 251.5t170 201t241 79.5q134 0 285 -74l-105 -509q3 -59 20 -83t50 -24 q46 0 83 39t58 99t32 124.5t11 124.5q0 103 -34.5 183.5t-96 130t-140 75t-171.5 25.5q-128 0 -239 -48.5t-187.5 -130.5t-120 -192.5t-43.5 -232.5q0 -121 43 -217t118 -156t171.5 -91.5t208.5 -31.5q82 0 170 19.5t143 40t141 57.5l49 -152q-283 -131 -530 -131 q-142 0 -266 42t-219.5 121t-151 205.5t-55.5 284.5zM565 283q0 -144 103 -144q47 0 86.5 29.5t64.5 75.5t39.5 84.5t22.5 72.5l51 238q-35 14 -82 14q-70 0 -127 -36t-90 -92.5t-50.5 -119t-17.5 -122.5z" />
<glyph unicode="A" d="M4 0l481 1458h265l481 -1458h-285l-115 352h-430l-114 -352h-283zM481 602h273l-138 416z" />
<glyph unicode="B" horiz-adv-x="1181" d="M123 0v1458h457q228 0 354.5 -115t126.5 -309q0 -172 -135 -284q174 -118 174 -324q0 -196 -126.5 -311t-355.5 -115h-495zM395 248h209q104 0 161.5 46.5t57.5 135.5t-57 134.5t-162 45.5h-209v-362zM395 858h170q104 0 161.5 44t57.5 130q0 85 -58.5 131.5t-160.5 46.5 h-170v-352z" />
<glyph unicode="C" horiz-adv-x="1298" d="M102 729q0 158 34.5 286.5t91.5 211.5t134 139t157 80t165 24q81 0 156 -23.5t146 -72.5t130.5 -134.5t97.5 -201.5l-260 -65q-82 248 -270 248q-43 0 -82.5 -11.5t-81.5 -44.5t-72 -86t-49.5 -143t-19.5 -207t19.5 -207t50 -142.5t72.5 -85.5t81.5 -44.5t83.5 -11.5 q184 0 266 237l265 -53q-40 -117 -99.5 -203t-131 -135.5t-146.5 -72.5t-156 -23q-85 0 -165 24t-157 80t-134 139t-91.5 211.5t-34.5 286.5z" />
<glyph unicode="D" horiz-adv-x="1271" d="M123 0v1458h465q88 0 169 -24t157 -79.5t132 -137.5t89.5 -208t33.5 -282q0 -153 -32.5 -277.5t-87 -207t-127.5 -138t-151.5 -80t-162.5 -24.5h-485zM395 248h193q45 0 85 11.5t81.5 44t71 83.5t48.5 137.5t19 198.5q0 115 -20.5 204t-52 141t-76 85.5t-86.5 45 t-89 11.5h-174v-962z" />
<glyph unicode="E" horiz-adv-x="1120" d="M123 0v1458h936v-248h-664v-352h410v-248h-410v-362h664v-248h-936z" />
<glyph unicode="F" horiz-adv-x="1069" d="M123 0v1458h936v-248h-664v-370h410v-248h-410v-592h-272z" />
<glyph unicode="G" horiz-adv-x="1345" d="M102 729q0 158 34 286t90.5 211t132.5 139.5t156 80.5t165 24q80 0 154.5 -23t145.5 -71.5t130.5 -134.5t97.5 -203l-262 -65q-76 248 -264 248q-43 0 -82 -11.5t-81 -44.5t-71.5 -86t-49 -143t-19.5 -207q0 -118 19.5 -208t50 -142.5t74 -85.5t84.5 -44t89 -11 q80 0 153.5 33t111.5 104v137h-275v248h547v-760h-248l-8 72q-125 -84 -289 -84q-89 0 -171 24.5t-158.5 80.5t-132.5 140t-90 211.5t-34 284.5z" />
<glyph unicode="H" horiz-adv-x="1267" d="M123 0v1458h272v-604h477v604h273v-1458h-273v604h-477v-604h-272z" />
<glyph unicode="I" horiz-adv-x="933" d="M72 0v217h260v1024h-260v217h790v-217h-258v-1024h258v-217h-790z" />
<glyph unicode="J" horiz-adv-x="1095" d="M51 489l273 54q0 -305 188 -305q80 0 127 51.5t47 144.5v787h-326v237h598v-1024q0 -194 -127 -320t-325 -126q-201 0 -328 134.5t-127 366.5z" />
<glyph unicode="K" horiz-adv-x="1275" d="M123 0v1458h272v-549l486 549h342l-572 -639l625 -819h-326l-473 625l-82 -93v-532h-272z" />
<glyph unicode="L" horiz-adv-x="978" d="M123 0v1458h272v-1210h523v-248h-795z" />
<glyph unicode="M" horiz-adv-x="1429" d="M123 0v1458h272l320 -577l319 577h273v-1458h-273v932l-243 -440h-152l-244 440v-932h-272z" />
<glyph unicode="N" horiz-adv-x="1368" d="M123 0v1458h264l586 -944v944h272v-1458h-262l-588 948v-948h-272z" />
<glyph unicode="O" horiz-adv-x="1378" d="M102 729q0 158 34 285.5t90 211t133 140t158.5 80.5t170.5 24t171 -24t159 -80.5t133.5 -140t90.5 -211t34 -285.5t-34 -285.5t-90.5 -211t-133.5 -140t-159 -80.5t-171 -24t-170.5 24t-158.5 80.5t-133 140t-90 211t-34 285.5zM379 729q0 -118 19 -207.5t48.5 -142 t72 -85.5t83 -44.5t86.5 -11.5t86.5 11.5t83.5 44.5t73 85.5t49 142t19 207.5t-19 207.5t-49.5 142.5t-73 86t-83 44.5t-86.5 11.5t-86.5 -11.5t-82.5 -44.5t-72 -86t-49 -142.5t-19 -207.5z" />
<glyph unicode="P" horiz-adv-x="1171" d="M123 0v1458h495q229 0 355.5 -123.5t126.5 -333.5q0 -207 -126 -325.5t-356 -118.5h-223v-557h-272zM395 805h209q105 0 162 49t57 147q0 102 -57.5 155.5t-161.5 53.5h-209v-405z" />
<glyph unicode="Q" horiz-adv-x="1378" d="M102 735q0 156 34 282t90 209t132.5 139t158.5 80.5t171 24.5t171 -24.5t159 -80.5t133.5 -139t90.5 -209t34 -282q0 -135 -25.5 -248.5t-69 -194t-103.5 -142t-126 -97t-141 -53.5v-227h-244v227q-75 18 -141.5 53.5t-126.5 96.5t-103 142t-68.5 194.5t-25.5 248.5z M379 729q0 -377 188 -469v219h244v-219q188 94 188 471q0 117 -19 206.5t-49.5 142t-73 85.5t-83 44.5t-86.5 11.5t-86.5 -11.5t-82.5 -44.5t-72 -86t-49 -142.5t-19 -207.5z" />
<glyph unicode="R" horiz-adv-x="1196" d="M123 0v1458h498q227 0 354 -117.5t127 -318.5q0 -164 -85 -270.5t-247 -141.5l397 -610h-307l-393 596h-72v-596h-272zM395 844h211q104 0 161.5 44.5t57.5 133.5q0 91 -58 139.5t-161 48.5h-211v-366z" />
<glyph unicode="S" horiz-adv-x="1130" d="M61 481l246 54q32 -297 266 -297q89 0 154.5 41.5t65.5 126.5q0 27 -6.5 49t-23.5 40.5t-31 31t-45 27t-48 22t-57 22.5l-191 76q-142 56 -215.5 142t-73.5 226q0 131 64 229.5t169.5 148.5t235.5 50q205 0 328 -123t123 -339l-246 -54q-26 267 -209 267q-76 0 -133 -42 t-57 -116q0 -30 11.5 -55.5t26.5 -41.5t42.5 -32.5t46 -24.5t49.5 -20l203 -80q56 -23 98.5 -45t84.5 -55.5t69 -72t44 -93.5t17 -121q0 -137 -66.5 -237t-176.5 -148.5t-248 -48.5q-230 0 -373.5 133t-143.5 360z" />
<glyph unicode="T" horiz-adv-x="1103" d="M10 1210v248h1084v-248h-406v-1210h-272v1210h-406z" />
<glyph unicode="U" horiz-adv-x="1261" d="M123 461v997h272v-983q0 -115 59 -176t177 -61t176.5 61t58.5 176v983h273v-997q0 -225 -136.5 -349t-371.5 -124q-234 0 -371 124.5t-137 348.5z" />
<glyph unicode="V" horiz-adv-x="1193" d="M4 1458h283l311 -971l309 971h283l-479 -1458h-226z" />
<glyph unicode="W" horiz-adv-x="1611" d="M4 1458h277l206 -950l191 758h254l188 -758l209 950h279l-353 -1458h-231l-219 786l-219 -786h-232z" />
<glyph unicode="X" d="M4 0l459 758l-422 700h309l268 -442l267 442h309l-422 -702l459 -756h-311l-302 502l-303 -502h-311z" />
<glyph unicode="Y" horiz-adv-x="1159" d="M4 1458h289l287 -567l286 567h289l-440 -895v-563h-273v563z" />
<glyph unicode="Z" horiz-adv-x="1093" d="M61 0v207l623 1003h-590v248h938v-190l-633 -1020h631v-248h-969z" />
<glyph unicode="[" horiz-adv-x="698" d="M147 -410v1995h508v-203h-229v-1591h229v-201h-508z" />
<glyph unicode="\" horiz-adv-x="753" d="M16 1470h230l491 -1482h-231z" />
<glyph unicode="]" horiz-adv-x="698" d="M43 -209h229v1591h-229v203h508v-1995h-508v201z" />
<glyph unicode="^" horiz-adv-x="1314" d="M102 549l463 909h185l462 -909h-243l-314 618l-309 -618h-244z" />
<glyph unicode="_" horiz-adv-x="1062" d="M0 -61h1063v-187h-1063v187z" />
<glyph unicode="`" horiz-adv-x="565" d="M-59 1597h295l241 -426h-221z" />
<glyph unicode="a" horiz-adv-x="1048" d="M70 307q0 303 383 328l211 14v13q0 72 -39.5 110.5t-112.5 38.5q-119 0 -190 -96l-216 61q37 121 152 198t262 77q187 0 296.5 -105t109.5 -266v-680h-250l-4 72q-109 -84 -244 -84q-158 0 -258 79.5t-100 239.5zM334 311q0 -38 26.5 -61t102.5 -23q127 0 201 78v133 l-207 -12q-123 -6 -123 -115z" />
<glyph unicode="b" horiz-adv-x="1138" d="M135 0v1458h262v-481q100 74 221 74q64 0 125.5 -17.5t121 -58t104.5 -100.5t72.5 -152t27.5 -205q0 -112 -27.5 -204t-72.5 -151.5t-105 -99.5t-123 -57.5t-129 -17.5q-130 0 -223 84l-4 -72h-250zM397 475q9 -70 30 -120.5t50.5 -77t61 -38.5t67.5 -12q28 0 54 6.5 t53 26.5t47 51t32.5 85t12.5 124q0 86 -18 146.5t-49 90.5t-63 42t-69 12q-35 0 -66 -10t-61 -32.5t-51.5 -65t-30.5 -101.5v-127z" />
<glyph unicode="c" horiz-adv-x="1013" d="M70 518q0 114 26.5 205.5t71 151.5t106 100.5t129 58t142.5 17.5q145 0 252 -77.5t147 -221.5l-229 -62q-65 121 -176 121q-39 0 -71.5 -12t-64.5 -42t-50.5 -91t-18.5 -148q0 -86 18.5 -146.5t50 -90.5t64 -42t70.5 -12q113 0 178 127l229 -59q-40 -146 -144.5 -226.5 t-256.5 -80.5q-75 0 -142.5 17.5t-128.5 57.5t-105.5 100t-70.5 151t-26 204z" />
<glyph unicode="d" horiz-adv-x="1136" d="M70 518q0 113 27.5 205t72 152t103.5 100.5t120 58t125 17.5q121 0 221 -74v481h262v-1458h-249l-4 72q-93 -84 -224 -84q-54 0 -107 12.5t-104.5 38t-95 69t-76.5 100t-52 136.5t-19 174zM334 518q0 -86 17.5 -146.5t48.5 -90.5t62.5 -42t69.5 -12q35 0 65.5 10t60 32.5 t51 64.5t30.5 100v127q-17 136 -76 193t-135 57q-28 0 -53 -6.5t-51.5 -26.5t-45.5 -51t-31.5 -85t-12.5 -124z" />
<glyph unicode="e" horiz-adv-x="1077" d="M70 516q0 114 27 206t71.5 152.5t106 101t127 58t137.5 17.5t138 -17.5t127 -58t105.5 -100.5t71.5 -152t27 -205v-88h-668q27 -203 203 -203q135 0 211 127l229 -59q-40 -146 -158 -226.5t-276 -80.5q-97 0 -180 29t-151.5 89t-108 165t-39.5 245zM346 639h381 q-38 172 -188 172q-152 0 -193 -172z" />
<glyph unicode="f" horiz-adv-x="706" d="M63 807v231h107v54q0 83 19.5 149.5t60.5 119t112.5 81t169.5 28.5q165 0 297 -114l-145 -193q-31 34 -71 51t-74 17q-107 0 -107 -139v-54h201v-231h-201v-807h-262v807h-107z" />
<glyph unicode="g" horiz-adv-x="1138" d="M70 520q0 112 27.5 204t72 151.5t105 100t123 58t128.5 17.5q131 0 224 -84l4 71h250v-1032q0 -193 -125 -315.5t-332 -122.5q-166 0 -282 81t-159 226l230 59q76 -127 215 -127q90 0 140 53t50 146v55q-99 -73 -221 -73q-64 0 -125 17.5t-121 58t-104.5 100t-72 151.5 t-27.5 205zM334 518q0 -86 18 -146.5t49 -90.5t62.5 -42t68.5 -12q35 0 66 10t61 32.5t51.5 65t30.5 101.5v127q-9 70 -30 120.5t-50.5 77t-61 38.5t-67.5 12t-67.5 -12t-63 -42t-49.5 -91t-18 -148z" />
<glyph unicode="h" horiz-adv-x="1103" d="M135 0v1458h262v-475q97 68 197 68q67 0 130 -23.5t119.5 -72.5t91 -137.5t34.5 -205.5v-612h-262v596q0 63 -13 108t-35.5 67t-45 31t-48.5 9q-58 0 -105 -44t-63 -144v-623h-262z" />
<glyph unicode="i" horiz-adv-x="772" d="M70 0v231h198v576h-198v231h460v-807h201v-231h-661zM233 1305q0 69 48.5 117t117.5 48t117.5 -48t48.5 -117t-48.5 -117.5t-117.5 -48.5t-117.5 48.5t-48.5 117.5z" />
<glyph unicode="j" horiz-adv-x="776" d="M-111 -236l195 130q90 -87 158 -87q65 0 103 53.5t38 145.5v801h-277v231h539v-1032q0 -191 -116 -314.5t-296 -123.5q-100 0 -189.5 50t-154.5 146zM346 1305q0 69 48.5 117t117.5 48t117.5 -48t48.5 -117t-48.5 -117.5t-117.5 -48.5t-117.5 48.5t-48.5 117.5z" />
<glyph unicode="k" horiz-adv-x="1091" d="M135 0v1458h262v-690l301 272h351l-455 -411l481 -629h-311l-354 459l-13 -8v-451h-262z" />
<glyph unicode="l" horiz-adv-x="772" d="M70 0v231h198v996h-198v231h460v-1227h201v-231h-661z" />
<glyph unicode="m" horiz-adv-x="1660" d="M135 0v1038h250l4 -71q102 84 213 84q154 0 252 -115q135 115 293 115q55 0 106.5 -14t102 -47t87.5 -82t60 -125.5t23 -170.5v-612h-262v596q0 63 -14.5 108t-39 67t-48 31t-48.5 9q-122 0 -153 -188v-623h-263v596q0 63 -14.5 108t-38.5 67t-47.5 31t-48.5 9 q-52 0 -94 -41.5t-58 -146.5v-623h-262z" />
<glyph unicode="n" horiz-adv-x="1103" d="M135 0v1038h250l4 -71q99 84 207 84q52 0 102 -14t100 -47t87.5 -82t60.5 -125.5t23 -170.5v-612h-262v596q0 63 -13 108t-35.5 67t-45 31t-48.5 9q-58 0 -105 -44t-63 -144v-623h-262z" />
<glyph unicode="o" horiz-adv-x="1073" d="M70 518q0 113 27 205t71.5 152t105.5 100.5t127 58t138 17.5q71 0 136.5 -17.5t126 -58t105 -100.5t71 -152t26.5 -205t-26.5 -204t-70.5 -151t-104.5 -100t-126 -57.5t-137.5 -17.5q-92 0 -172.5 29t-148.5 89t-108 166t-40 246zM334 518q0 -86 18.5 -146.5t50.5 -90.5 t64.5 -42t71.5 -12t71 12t63 42t48.5 90.5t17.5 146.5q0 293 -200 293q-39 0 -71.5 -12t-64.5 -42t-50.5 -91t-18.5 -148z" />
<glyph unicode="p" horiz-adv-x="1138" d="M135 -420v1458h250l4 -71q93 84 223 84q66 0 129 -17.5t123 -58t105 -100t72.5 -151.5t27.5 -204q0 -113 -27.5 -205t-72.5 -151.5t-104.5 -100t-121 -58t-125.5 -17.5q-122 0 -221 73v-481h-262zM397 477q17 -136 76 -193t135 -57q28 0 53 6.5t52.5 26.5t47 51t32 85 t12.5 124q0 86 -18 146.5t-49.5 90.5t-63.5 42t-70 12q-35 0 -65.5 -10t-60 -32.5t-51 -64.5t-30.5 -100v-127z" />
<glyph unicode="q" horiz-adv-x="1101" d="M70 520q0 112 27.5 204t72 151.5t105 100t123 58t128.5 17.5q131 0 224 -84l4 71h250v-1458h-263v481q-99 -73 -221 -73q-64 0 -125 17.5t-121 58t-104.5 100t-72 151.5t-27.5 205zM334 518q0 -86 18 -146.5t49 -90.5t62.5 -42t68.5 -12q35 0 66 10t61 32.5t51.5 65 t30.5 101.5v127q-9 70 -30 120.5t-50.5 77t-61 38.5t-67.5 12t-67.5 -12t-63 -42t-49.5 -91t-18 -148z" />
<glyph unicode="r" horiz-adv-x="729" d="M135 0v1038h250l4 -90q100 103 236 103q49 0 96 -9l-25 -272q-52 18 -108 18q-159 0 -191 -215v-573h-262z" />
<glyph unicode="s" horiz-adv-x="962" d="M70 295l229 59q63 -127 193 -127q57 0 94 21t37 59q0 32 -30.5 52.5t-113.5 52.5l-76 28q-49 19 -80 32.5t-73 40t-66.5 55t-42.5 72.5t-18 97q0 139 105 226.5t264 87.5q141 0 237 -75.5t135 -223.5l-229 -60q-52 119 -143 119q-43 0 -74 -19.5t-31 -48.5 q0 -26 31 -42.5t125 -49.5l67 -24q52 -19 91 -37.5t76.5 -46t62 -59t39 -75t14.5 -96.5q0 -105 -56.5 -180t-147.5 -110t-204 -35q-329 0 -415 307z" />
<glyph unicode="t" horiz-adv-x="733" d="M43 807v231h107v293h262v-293h239v-231h-239v-457q0 -75 20.5 -99t69.5 -24q64 0 153 33l17 -219q-115 -53 -219 -53q-157 0 -230 93t-73 249v477h-107z" />
<glyph unicode="u" horiz-adv-x="1124" d="M135 426v625h262v-609q0 -215 146 -215q62 0 114.5 43t69.5 146v622h262v-1038h-250l-4 72q-41 -41 -102.5 -62.5t-124.5 -21.5q-52 0 -102 14t-100 47t-87.5 81.5t-60.5 125t-23 170.5z" />
<glyph unicode="v" horiz-adv-x="999" d="M4 1038h283l213 -657l211 657h284l-372 -1038h-248z" />
<glyph unicode="w" horiz-adv-x="1290" d="M4 1038h279l137 -602l121 459h211l118 -459l140 602h276l-260 -1038h-242l-139 465l-139 -465h-242z" />
<glyph unicode="x" horiz-adv-x="1030" d="M20 0l342 537l-321 501h299l174 -270l172 270h301l-321 -499l344 -539h-299l-197 303l-197 -303h-297z" />
<glyph unicode="y" horiz-adv-x="989" d="M4 1038h283l207 -626l208 626h283l-532 -1458h-267l172 486z" />
<glyph unicode="z" horiz-adv-x="948" d="M70 0v186l462 621h-440v231h778v-194l-458 -613h458v-231h-800z" />
<glyph unicode="{" horiz-adv-x="569" d="M-12 483v207q72 0 111.5 55.5t39.5 139.5v467q0 115 67 174t171 59h211v-201h-90q-45 0 -62.5 -21.5t-17.5 -66.5v-458q0 -163 -127 -250q52 -37 89.5 -100.5t37.5 -149.5v-459q0 -45 17.5 -66.5t62.5 -21.5h90v-201h-211q-104 0 -171 59.5t-67 174.5v467q0 82 -39.5 137 t-111.5 55z" />
<glyph unicode="|" horiz-adv-x="526" d="M147 -512v2048h232v-2048h-232z" />
<glyph unicode="}" horiz-adv-x="546" d="M-12 -209h90q45 0 62.5 21.5t17.5 66.5v459q0 86 37.5 149.5t89.5 100.5q-127 87 -127 250v458q0 45 -17.5 66.5t-62.5 21.5h-90v201h211q104 0 170.5 -59t66.5 -174v-467q0 -84 40 -139.5t112 -55.5v-207q-72 0 -112 -55t-40 -137v-467q0 -116 -67 -175t-170 -59h-211 v201z" />
<glyph unicode="~" horiz-adv-x="1224" d="M141 526q99 185 267 185q41 0 87.5 -13t72 -25t77.5 -38q114 -60 166 -60q47 0 85 35t105 123l82 -203q-94 -184 -258 -184q-98 0 -250 76q-116 59 -163 59q-41 0 -81 -35t-108 -122z" />
<glyph unicode="&#xa1;" horiz-adv-x="587" d="M133 -12l68 626h184l70 -626l-9 -408h-303zM141 887q0 66 45 110.5t111 44.5q65 0 110.5 -44.5t45.5 -110.5q0 -65 -46 -111.5t-110 -46.5q-65 0 -110.5 46.5t-45.5 111.5z" />
<glyph unicode="&#xa2;" horiz-adv-x="1013" d="M70 518q0 123 30 219t83.5 157.5t119.5 97.5t146 50v193h172v-191q118 -19 202.5 -93.5t120.5 -198.5l-229 -62q-40 73 -94 101v-543q52 27 94 106l229 -59q-35 -127 -118 -204.5t-205 -96.5v-195h-172v197q-63 10 -118 34t-103.5 67t-83 100.5t-54.5 139.5t-20 181z M334 518q0 -215 115 -272v545q-115 -57 -115 -273z" />
<glyph unicode="&#xa3;" horiz-adv-x="991" d="M59 594v182h103q-68 190 -68 262q0 199 120 315.5t302 116.5q178 0 291 -118.5t113 -321.5l-234 -55q-13 125 -60 185.5t-110 60.5t-105 -48.5t-42 -136.5q0 -102 65 -260h367v-182h-295q12 -47 12 -102q0 -110 -82 -244h535l-53 -248h-857l27 248h74q96 121 96 209 q0 48 -29 137h-170z" />
<glyph unicode="&#xa4;" horiz-adv-x="1134" d="M55 717q0 163 103 307l-103 100l103 105l98 -103q141 103 311 103q177 0 312 -107l102 105l96 -101l-102 -98q104 -139 104 -311q0 -175 -104 -311l102 -99l-102 -102l-101 102q-132 -102 -307 -102q-172 0 -311 102l-98 -102l-97 96l99 100q-105 134 -105 316zM170 717 q0 -169 114 -283.5t283 -114.5q168 0 283 115t115 283q0 167 -115.5 282t-282.5 115q-168 0 -282.5 -114.5t-114.5 -282.5z" />
<glyph unicode="&#xa5;" horiz-adv-x="1036" d="M4 1458h289l225 -567l225 567h289l-274 -633h188v-182h-268l-25 -59v-52h293v-182h-293v-350h-272v350h-291v182h291v52l-27 59h-264v182h186z" />
<glyph unicode="&#xa6;" horiz-adv-x="505" d="M147 -358v823h211v-823h-211zM147 633v749h211v-749h-211z" />
<glyph unicode="&#xa7;" horiz-adv-x="1028" d="M94 -43l240 63q65 -151 184 -151q59 0 95 29t36 88q0 49 -45 82t-215 112q-62 30 -105 57.5t-88 72.5t-68.5 109t-23.5 146q0 224 162 314q-119 87 -119 237q0 158 108 256t277 98q135 0 234.5 -78t138.5 -227l-237 -63q-29 76 -63.5 109.5t-80.5 33.5q-55 0 -90 -31 t-35 -79q0 -42 46.5 -73.5t203.5 -103.5q52 -25 84 -42.5t75 -51t67 -69t41.5 -91t17.5 -122.5q0 -213 -164 -318q63 -46 99 -115t36 -155q0 -166 -111 -258t-288 -92q-155 0 -263 82t-149 231zM360 559q0 -62 30.5 -93.5t139.5 -82.5q68 5 108 57.5t40 151.5q0 27 -6 45 t-14 31t-34 28.5t-48.5 26t-75.5 33.5q-65 -6 -102.5 -55t-37.5 -142z" />
<glyph unicode="&#xa8;" horiz-adv-x="833" d="M43 1341q0 65 45.5 111.5t110.5 46.5q64 0 109.5 -46.5t45.5 -111.5q0 -66 -45 -110.5t-110 -44.5q-66 0 -111 44.5t-45 110.5zM471 1341q0 65 45 111.5t109 46.5q66 0 111.5 -46.5t45.5 -111.5q0 -66 -45.5 -110.5t-111.5 -44.5q-65 0 -109.5 44.5t-44.5 110.5z" />
<glyph unicode="&#xa9;" horiz-adv-x="1636" d="M78 729q0 151 58.5 288.5t157.5 236.5t236 157.5t287 58.5q202 0 372.5 -99t270 -269.5t99.5 -372.5t-99.5 -372.5t-270 -269.5t-372.5 -99q-150 0 -287 58.5t-236 157.5t-157.5 236.5t-58.5 288.5zM246 729q0 -254 162 -419t409 -165q248 0 410 165t162 419t-162 419 t-410 165q-247 0 -409 -165t-162 -419zM389 729q0 101 25.5 182t67.5 133t98.5 87.5t115.5 50t121 14.5q136 0 247.5 -84.5t172.5 -261.5l-195 -51q-64 202 -225 202q-40 0 -75.5 -11.5t-70.5 -39.5t-56 -84.5t-21 -136.5q0 -65 14.5 -114.5t37 -78t53.5 -47t59.5 -24.5 t60.5 -6q156 0 221 194l197 -45q-61 -177 -172.5 -261.5t-247.5 -84.5q-62 0 -121 15t-115.5 50t-98.5 87.5t-67.5 133.5t-25.5 181z" />
<glyph unicode="&#xaa;" horiz-adv-x="653" d="M12 961q0 103 68 160t196 65l144 8v8q0 50 -27 76.5t-76 26.5q-83 0 -131 -66l-149 43q27 83 106 135.5t181 52.5q127 0 201.5 -72t74.5 -184v-466h-172l-2 36q-65 -45 -152 -45q-116 0 -189 55.5t-73 166.5zM18 494v159h582v-159h-582zM195 963q0 -27 17.5 -42.5 t70.5 -15.5q88 0 137 53v93l-141 -9q-84 -6 -84 -79z" />
<glyph unicode="&#xab;" horiz-adv-x="1165" d="M96 567l467 441l76 -201l-227 -240l225 -239l-74 -201zM526 567l467 441l76 -201l-227 -240l225 -239l-74 -201z" />
<glyph unicode="&#xad;" horiz-adv-x="892" d="M109 461v229h675v-229h-675z" />
<glyph unicode="&#xae;" horiz-adv-x="1009" d="M78 1040q0 178 125.5 304t300.5 126q178 0 303 -125.5t125 -304.5q0 -175 -125 -300.5t-303 -125.5q-175 0 -300.5 125.5t-125.5 300.5zM174 1040q0 -144 94.5 -239.5t235.5 -95.5q143 0 236.5 95t93.5 240q0 148 -93.5 244t-236.5 96q-142 0 -236 -96.5t-94 -243.5z M358 803v493h166q78 0 121 -40t43 -109q0 -113 -98 -141l127 -203h-115l-127 194h-12v-194h-105zM463 1092h57q29 0 45.5 13t16.5 36q0 51 -62 51h-57v-100z" />
<glyph unicode="&#xaf;" horiz-adv-x="737" d="M43 1239v205h643v-205h-643z" />
<glyph unicode="&#xb0;" horiz-adv-x="720" d="M117 1225q0 103 70 174t173 71q102 0 173 -71t71 -174q0 -101 -71.5 -171.5t-172.5 -70.5q-102 0 -172.5 70.5t-70.5 171.5zM256 1225q0 -43 30 -73t74 -30q42 0 73.5 30.5t31.5 72.5q0 43 -31.5 73.5t-73.5 30.5q-44 0 -74 -30t-30 -74z" />
<glyph unicode="&#xb1;" horiz-adv-x="1167" d="M96 174v229h975v-229h-975zM96 618v230h373v293h229v-293h373v-230h-373v-126h-229v126h-373z" />
<glyph unicode="&#xb2;" horiz-adv-x="647" d="M31 598v160l301 313q65 68 65 127q0 36 -18.5 58t-52.5 22q-40 0 -62 -39.5t-22 -112.5h-203q0 161 79 252.5t208 91.5q127 0 200.5 -73t73.5 -197q0 -18 -2 -35.5t-4.5 -31t-9 -29.5t-10.5 -25.5t-13.5 -24.5t-14 -21.5t-17 -21.5t-16 -19t-17.5 -19.5t-17 -18.5 l-147 -159h284v-197h-585z" />
<glyph unicode="&#xb3;" horiz-adv-x="587" d="M10 903h203q0 -125 88 -125q35 0 54.5 21t19.5 61q0 53 -21.5 82t-58.5 29h-70v139h70q67 0 67 96q0 72 -67 72q-72 0 -72 -121h-205q0 146 76.5 229.5t200.5 83.5q123 0 196.5 -70t73.5 -188q0 -105 -67 -165q80 -74 80 -193q0 -123 -75.5 -193.5t-201.5 -70.5 q-134 0 -212.5 82.5t-78.5 230.5z" />
<glyph unicode="&#xb4;" horiz-adv-x="362" d="M-88 1171l244 426h295l-318 -426h-221z" />
<glyph unicode="&#xb6;" horiz-adv-x="1323" d="M98 1010q0 186 134.5 317t336.5 131h521v-196h-70v-1606h-225v1606h-62v-1606h-225v909q-175 15 -292.5 142.5t-117.5 302.5z" />
<glyph unicode="&#xb7;" horiz-adv-x="530" d="M109 596q0 66 44.5 112t110.5 46t112 -46t46 -112q0 -64 -46 -109t-112 -45t-110.5 44.5t-44.5 109.5z" />
<glyph unicode="&#xb8;" horiz-adv-x="563" d="M43 -258q120 -55 182 -55q26 0 41 15.5t15 41.5q0 57 -70 63l-98 9l47 184h174l-19 -76q37 -3 69 -13t62.5 -29t48 -52t17.5 -78q0 -98 -75.5 -156.5t-182.5 -58.5t-211 49v156z" />
<glyph unicode="&#xb9;" horiz-adv-x="704" d="M104 598v180h148v416l-88 -74l-60 185l177 157h172v-684h147v-180h-496z" />
<glyph unicode="&#xba;" horiz-adv-x="702" d="M31 1104q0 96 27.5 169.5t74.5 115t102 61.5t117 20t117 -20t101.5 -61.5t74 -115t27.5 -169.5t-27.5 -168.5t-74 -114t-101.5 -62t-117 -20.5q-63 0 -118 20.5t-102 62t-74 114t-27 168.5zM59 494v159h582v-159h-582zM213 1104q0 -199 139 -199q137 0 137 199 q0 201 -137 201q-139 0 -139 -201z" />
<glyph unicode="&#xbb;" horiz-adv-x="1165" d="M96 807l76 201l467 -441l-467 -440l-74 201l226 239zM526 807l76 201l467 -441l-467 -440l-74 201l226 239z" />
<glyph unicode="&#xbc;" horiz-adv-x="1533" d="M104 598h496v180h-147v684h-172l-177 -157l60 -185l88 74v-416h-148v-180zM322 -12l856 1482h211l-859 -1482h-208zM868 162h314v-162h198v162h88v182h-88v139h-198v-139h-97l250 514h-188l-279 -563v-133z" />
<glyph unicode="&#xbd;" horiz-adv-x="1654" d="M104 598h496v180h-147v684h-172l-177 -157l60 -185l88 74v-416h-148v-180zM322 -12l856 1482h211l-859 -1482h-208zM1004 0h585v197h-284l147 159q3 3 17 18.5t17.5 19.5t16 19t17 21.5t14 21.5t13.5 24.5t10.5 25.5t9 29.5t4.5 31t2 35.5q0 124 -74 197t-201 73 q-129 0 -207.5 -91.5t-78.5 -252.5h202q0 73 22 112.5t62 39.5q34 0 53 -22t19 -58q0 -59 -65 -127l-301 -313v-160z" />
<glyph unicode="&#xbe;" horiz-adv-x="1452" d="M10 903h203q0 -125 88 -125q35 0 54.5 21t19.5 61q0 53 -21.5 82t-58.5 29h-70v139h70q67 0 67 96q0 72 -67 72q-72 0 -72 -121h-205q0 146 76.5 229.5t200.5 83.5q123 0 196.5 -70t73.5 -188q0 -105 -67 -165q80 -74 80 -193q0 -123 -75.5 -193.5t-201.5 -70.5 q-134 0 -212.5 82.5t-78.5 230.5zM240 -12l856 1482h211l-858 -1482h-209zM786 162v133l279 563h188l-249 -514h96v139h198v-139h88v-182h-88v-162h-198v162h-314z" />
<glyph unicode="&#xbf;" horiz-adv-x="1034" d="M106 -61q0 100 43.5 183t124.5 179l97 113q32 38 44.5 66.5t12.5 70.5v63h277v-79q0 -60 -14 -102.5t-48 -88.5l-117 -158q-48 -64 -69 -95t-38.5 -70.5t-17.5 -73.5q0 -57 37.5 -93t102.5 -36q159 0 159 202h275q0 -217 -115.5 -334.5t-320.5 -117.5q-192 0 -312.5 103 t-120.5 268zM401 887q0 65 48 110t116 45q70 0 117 -44.5t47 -110.5q0 -65 -47 -111.5t-117 -46.5q-67 0 -115.5 46.5t-48.5 111.5z" />
<glyph unicode="&#xc0;" d="M4 0l481 1458h265l481 -1458h-285l-115 352h-430l-114 -352h-283zM348 2017h295l242 -426h-221zM481 602h273l-138 416z" />
<glyph unicode="&#xc1;" d="M4 0l481 1458h265l481 -1458h-285l-115 352h-430l-114 -352h-283zM348 1591l244 426h295l-318 -426h-221zM481 602h273l-138 416z" />
<glyph unicode="&#xc2;" d="M4 0l481 1458h265l481 -1458h-285l-115 352h-430l-114 -352h-283zM283 1591l243 426h191l233 -426h-229l-103 193l-108 -193h-227zM481 602h273l-138 416z" />
<glyph unicode="&#xc3;" d="M4 0l481 1458h265l481 -1458h-285l-115 352h-430l-114 -352h-283zM240 1636q57 283 235 283q48 0 135 -36t135 -36q31 0 50.5 20.5t44.5 69.5l155 -32q-11 -62 -26.5 -109t-41 -88.5t-65.5 -63.5t-92 -22q-49 0 -138 35t-138 35q-34 0 -52.5 -22t-35.5 -68zM481 602h273 l-138 416z" />
<glyph unicode="&#xc4;" d="M4 0l481 1458h265l481 -1458h-285l-115 352h-430l-114 -352h-283zM248 1761q0 65 45 111.5t110 46.5q64 0 110 -46.5t46 -111.5q0 -66 -45.5 -110.5t-110.5 -44.5q-66 0 -110.5 44.5t-44.5 110.5zM481 602h273l-138 416zM676 1761q0 65 44.5 111.5t108.5 46.5 q66 0 112 -46.5t46 -111.5q0 -66 -46 -110.5t-112 -44.5q-65 0 -109 44.5t-44 110.5z" />
<glyph unicode="&#xc5;" d="M4 0l481 1458h265l481 -1458h-285l-115 352h-430l-114 -352h-283zM428 1761q0 78 55 134.5t133 56.5q79 0 135 -56.5t56 -134.5t-56 -134t-135 -56q-78 0 -133 56t-55 134zM481 602h273l-138 416z" />
<glyph unicode="&#xc6;" horiz-adv-x="1847" d="M-20 0l684 1458h1122v-248h-664v-352h486v-248h-486v-362h664v-248h-936v610h-299l-287 -610h-284zM664 858h186v352h-25z" />
<glyph unicode="&#xc7;" horiz-adv-x="1298" d="M102 729q0 158 34.5 286.5t91.5 211.5t134 139t157 80t165 24q81 0 156 -23.5t146 -72.5t130.5 -134.5t97.5 -201.5l-260 -65q-82 248 -270 248q-43 0 -82.5 -11.5t-81.5 -44.5t-72 -86t-49.5 -143t-19.5 -207t19.5 -207t50 -142.5t72.5 -85.5t81.5 -44.5t83.5 -11.5 q184 0 266 237l265 -53q-40 -117 -99.5 -203t-131 -135.5t-146.5 -72.5t-156 -23q-85 0 -165 24t-157 80t-134 139t-91.5 211.5t-34.5 286.5zM459 -258q120 -55 182 -55q26 0 40.5 15.5t14.5 41.5q0 57 -69 63l-99 9l47 184h175l-19 -76q37 -3 69 -13t62.5 -29t48 -52 t17.5 -78q0 -98 -75.5 -156.5t-182.5 -58.5t-211 49v156z" />
<glyph unicode="&#xc8;" horiz-adv-x="1120" d="M123 0v1458h936v-248h-664v-352h410v-248h-410v-362h664v-248h-936zM311 2017h295l242 -426h-221z" />
<glyph unicode="&#xc9;" horiz-adv-x="1120" d="M123 0v1458h936v-248h-664v-352h410v-248h-410v-362h664v-248h-936zM311 1591l244 426h295l-318 -426h-221z" />
<glyph unicode="&#xca;" horiz-adv-x="1120" d="M123 0v1458h936v-248h-664v-352h410v-248h-410v-362h664v-248h-936zM266 1591l244 426h190l234 -426h-229l-103 193l-108 -193h-228z" />
<glyph unicode="&#xcb;" horiz-adv-x="1120" d="M123 0v1458h936v-248h-664v-352h410v-248h-410v-362h664v-248h-936zM231 1761q0 65 45.5 111.5t110.5 46.5q64 0 110 -46.5t46 -111.5q0 -66 -45.5 -110.5t-110.5 -44.5q-66 0 -111 44.5t-45 110.5zM659 1761q0 65 45 111.5t109 46.5q66 0 112 -46.5t46 -111.5 q0 -66 -46 -110.5t-112 -44.5q-65 0 -109.5 44.5t-44.5 110.5z" />
<glyph unicode="&#xcc;" horiz-adv-x="933" d="M72 0v217h260v1024h-260v217h790v-217h-258v-1024h258v-217h-790zM199 2017h295l241 -426h-221z" />
<glyph unicode="&#xcd;" horiz-adv-x="933" d="M72 0v217h260v1024h-260v217h790v-217h-258v-1024h258v-217h-790zM197 1591l243 426h295l-317 -426h-221z" />
<glyph unicode="&#xce;" horiz-adv-x="933" d="M72 0v217h260v1024h-260v217h790v-217h-258v-1024h258v-217h-790zM133 1591l244 426h190l234 -426h-230l-102 193l-109 -193h-227z" />
<glyph unicode="&#xcf;" horiz-adv-x="933" d="M72 0v217h260v1024h-260v217h790v-217h-258v-1024h258v-217h-790zM96 1761q0 65 45.5 111.5t110.5 46.5q64 0 110 -46.5t46 -111.5q0 -66 -45.5 -110.5t-110.5 -44.5q-66 0 -111 44.5t-45 110.5zM524 1761q0 65 45 111.5t109 46.5q66 0 112 -46.5t46 -111.5 q0 -66 -46 -110.5t-112 -44.5q-65 0 -109.5 44.5t-44.5 110.5z" />
<glyph unicode="&#xd0;" horiz-adv-x="1265" d="M12 633v223h105v602h465q88 0 169 -24t157 -79.5t132 -137.5t89.5 -208t33.5 -282q0 -153 -32.5 -277.5t-87 -207t-127.5 -138t-151.5 -80t-162.5 -24.5h-485v633h-105zM389 248h193q45 0 85 11.5t81.5 44t71 83.5t48.5 137.5t19 198.5q0 115 -20.5 204t-52 141t-76 85.5 t-86.5 45t-89 11.5h-174v-354h316v-223h-316v-385z" />
<glyph unicode="&#xd1;" horiz-adv-x="1368" d="M123 0v1458h264l586 -944v944h272v-1458h-262l-588 948v-948h-272zM305 1636q57 283 236 283q48 0 135 -36t135 -36q31 0 50 20.5t44 69.5l156 -32q-11 -62 -26.5 -109t-41 -88.5t-65.5 -63.5t-92 -22q-49 0 -138.5 35t-138.5 35q-34 0 -52.5 -22t-35.5 -68z" />
<glyph unicode="&#xd2;" horiz-adv-x="1378" d="M102 729q0 158 34 285.5t90 211t133 140t158.5 80.5t170.5 24t171 -24t159 -80.5t133.5 -140t90.5 -211t34 -285.5t-34 -285.5t-90.5 -211t-133.5 -140t-159 -80.5t-171 -24t-170.5 24t-158.5 80.5t-133 140t-90 211t-34 285.5zM379 729q0 -118 19 -207.5t48.5 -142 t72 -85.5t83 -44.5t86.5 -11.5t86.5 11.5t83.5 44.5t73 85.5t49 142t19 207.5t-19 207.5t-49.5 142.5t-73 86t-83 44.5t-86.5 11.5t-86.5 -11.5t-82.5 -44.5t-72 -86t-49 -142.5t-19 -207.5zM420 2017h295l241 -426h-221z" />
<glyph unicode="&#xd3;" horiz-adv-x="1378" d="M102 729q0 158 34 285.5t90 211t133 140t158.5 80.5t170.5 24t171 -24t159 -80.5t133.5 -140t90.5 -211t34 -285.5t-34 -285.5t-90.5 -211t-133.5 -140t-159 -80.5t-171 -24t-170.5 24t-158.5 80.5t-133 140t-90 211t-34 285.5zM379 729q0 -118 19 -207.5t48.5 -142 t72 -85.5t83 -44.5t86.5 -11.5t86.5 11.5t83.5 44.5t73 85.5t49 142t19 207.5t-19 207.5t-49.5 142.5t-73 86t-83 44.5t-86.5 11.5t-86.5 -11.5t-82.5 -44.5t-72 -86t-49 -142.5t-19 -207.5zM420 1591l244 426h294l-317 -426h-221z" />
<glyph unicode="&#xd4;" horiz-adv-x="1378" d="M102 729q0 158 34 285.5t90 211t133 140t158.5 80.5t170.5 24t171 -24t159 -80.5t133.5 -140t90.5 -211t34 -285.5t-34 -285.5t-90.5 -211t-133.5 -140t-159 -80.5t-171 -24t-170.5 24t-158.5 80.5t-133 140t-90 211t-34 285.5zM354 1591l244 426h190l234 -426h-229 l-103 193l-108 -193h-228zM379 729q0 -118 19 -207.5t48.5 -142t72 -85.5t83 -44.5t86.5 -11.5t86.5 11.5t83.5 44.5t73 85.5t49 142t19 207.5t-19 207.5t-49.5 142.5t-73 86t-83 44.5t-86.5 11.5t-86.5 -11.5t-82.5 -44.5t-72 -86t-49 -142.5t-19 -207.5z" />
<glyph unicode="&#xd5;" horiz-adv-x="1378" d="M102 729q0 158 34 285.5t90 211t133 140t158.5 80.5t170.5 24t171 -24t159 -80.5t133.5 -140t90.5 -211t34 -285.5t-34 -285.5t-90.5 -211t-133.5 -140t-159 -80.5t-171 -24t-170.5 24t-158.5 80.5t-133 140t-90 211t-34 285.5zM311 1636q57 283 236 283q48 0 135 -36 t135 -36q31 0 50 20.5t44 69.5l156 -32q-11 -62 -26.5 -109t-41 -88.5t-65.5 -63.5t-92 -22q-49 0 -138.5 35t-138.5 35q-34 0 -52.5 -22t-35.5 -68zM379 729q0 -118 19 -207.5t48.5 -142t72 -85.5t83 -44.5t86.5 -11.5t86.5 11.5t83.5 44.5t73 85.5t49 142t19 207.5 t-19 207.5t-49.5 142.5t-73 86t-83 44.5t-86.5 11.5t-86.5 -11.5t-82.5 -44.5t-72 -86t-49 -142.5t-19 -207.5z" />
<glyph unicode="&#xd6;" horiz-adv-x="1378" d="M102 729q0 158 34 285.5t90 211t133 140t158.5 80.5t170.5 24t171 -24t159 -80.5t133.5 -140t90.5 -211t34 -285.5t-34 -285.5t-90.5 -211t-133.5 -140t-159 -80.5t-171 -24t-170.5 24t-158.5 80.5t-133 140t-90 211t-34 285.5zM319 1761q0 65 45.5 111.5t110.5 46.5 q64 0 110 -46.5t46 -111.5q0 -66 -45.5 -110.5t-110.5 -44.5q-66 0 -111 44.5t-45 110.5zM379 729q0 -118 19 -207.5t48.5 -142t72 -85.5t83 -44.5t86.5 -11.5t86.5 11.5t83.5 44.5t73 85.5t49 142t19 207.5t-19 207.5t-49.5 142.5t-73 86t-83 44.5t-86.5 11.5t-86.5 -11.5 t-82.5 -44.5t-72 -86t-49 -142.5t-19 -207.5zM748 1761q0 65 44.5 111.5t108.5 46.5q66 0 112 -46.5t46 -111.5q0 -66 -46 -110.5t-112 -44.5q-65 0 -109 44.5t-44 110.5z" />
<glyph unicode="&#xd7;" horiz-adv-x="1146" d="M96 338l316 315l-316 316l162 161l315 -315l316 315l162 -161l-316 -316l316 -315l-162 -162l-316 316l-315 -316z" />
<glyph unicode="&#xd8;" horiz-adv-x="1378" d="M102 729q0 158 34 285.5t90 211t133 140t158.5 80.5t170.5 24q150 0 273 -67l83 145l181 -104l-103 -178q154 -199 154 -537q0 -158 -34 -285.5t-90.5 -211t-133.5 -140t-159 -80.5t-171 -24q-149 0 -264 63l-84 -145l-180 104l100 174q-158 196 -158 545zM379 729 q0 -163 37 -276l418 729q-63 39 -146 39q-46 0 -86.5 -11.5t-82.5 -44.5t-72 -86t-49 -142.5t-19 -207.5zM551 270q55 -32 137 -32q46 0 86.5 11.5t83.5 44.5t73 85.5t49 142t19 207.5q0 148 -34 264z" />
<glyph unicode="&#xd9;" horiz-adv-x="1261" d="M123 461v997h272v-983q0 -115 59 -176t177 -61t176.5 61t58.5 176v983h273v-997q0 -225 -136.5 -349t-371.5 -124q-234 0 -371 124.5t-137 348.5zM362 2017h295l242 -426h-221z" />
<glyph unicode="&#xda;" horiz-adv-x="1261" d="M123 461v997h272v-983q0 -115 59 -176t177 -61t176.5 61t58.5 176v983h273v-997q0 -225 -136.5 -349t-371.5 -124q-234 0 -371 124.5t-137 348.5zM360 1591l244 426h295l-317 -426h-222z" />
<glyph unicode="&#xdb;" horiz-adv-x="1261" d="M123 461v997h272v-983q0 -115 59 -176t177 -61t176.5 61t58.5 176v983h273v-997q0 -225 -136.5 -349t-371.5 -124q-234 0 -371 124.5t-137 348.5zM297 1591l244 426h190l234 -426h-230l-102 193l-109 -193h-227z" />
<glyph unicode="&#xdc;" horiz-adv-x="1261" d="M123 461v997h272v-983q0 -115 59 -176t177 -61t176.5 61t58.5 176v983h273v-997q0 -225 -136.5 -349t-371.5 -124q-234 0 -371 124.5t-137 348.5zM260 1761q0 65 45.5 111.5t110.5 46.5q64 0 109.5 -46.5t45.5 -111.5q0 -66 -45 -110.5t-110 -44.5q-66 0 -111 44.5 t-45 110.5zM688 1761q0 65 45 111.5t109 46.5q66 0 111.5 -46.5t45.5 -111.5q0 -66 -45.5 -110.5t-111.5 -44.5q-65 0 -109.5 44.5t-44.5 110.5z" />
<glyph unicode="&#xdd;" horiz-adv-x="1159" d="M4 1458h289l287 -567l286 567h289l-440 -895v-563h-273v563zM309 1591l244 426h295l-318 -426h-221z" />
<glyph unicode="&#xde;" horiz-adv-x="1161" d="M123 0v1458h272v-221h223q229 0 355.5 -123.5t126.5 -333.5q0 -207 -126 -325.5t-356 -118.5h-223v-336h-272zM395 584h209q105 0 162 49t57 147q0 102 -57.5 155.5t-161.5 53.5h-209v-405z" />
<glyph unicode="&#xdf;" horiz-adv-x="1257" d="M63 807v231h107q0 210 108 321t353 111q214 0 337.5 -105t123.5 -271q0 -97 -42.5 -184.5t-115.5 -143.5q95 -43 154.5 -110.5t79.5 -130.5t20 -132q0 -120 -62.5 -214.5t-160 -142.5t-207.5 -48q-137 0 -252 69v215q161 -45 233 -45q76 0 130.5 46t54.5 124 q0 44 -20 78.5t-51.5 55.5t-74.5 34t-84 18t-86 5v219h56q70 32 115.5 101.5t45.5 144.5q0 78 -53 128t-147 50q-193 0 -193 -139v-1092h-262v807h-107z" />
<glyph unicode="&#xe0;" horiz-adv-x="1048" d="M70 307q0 303 383 328l211 14v13q0 72 -39.5 110.5t-112.5 38.5q-119 0 -190 -96l-216 61q37 121 152 198t262 77q187 0 296.5 -105t109.5 -266v-680h-250l-4 72q-109 -84 -244 -84q-158 0 -258 79.5t-100 239.5zM256 1597h295l242 -426h-222zM334 311q0 -38 26.5 -61 t102.5 -23q127 0 201 78v133l-207 -12q-123 -6 -123 -115z" />
<glyph unicode="&#xe1;" horiz-adv-x="1048" d="M70 307q0 303 383 328l211 14v13q0 72 -39.5 110.5t-112.5 38.5q-119 0 -190 -96l-216 61q37 121 152 198t262 77q187 0 296.5 -105t109.5 -266v-680h-250l-4 72q-109 -84 -244 -84q-158 0 -258 79.5t-100 239.5zM254 1171l244 426h295l-318 -426h-221zM334 311 q0 -38 26.5 -61t102.5 -23q127 0 201 78v133l-207 -12q-123 -6 -123 -115z" />
<glyph unicode="&#xe2;" horiz-adv-x="1048" d="M70 307q0 303 383 328l211 14v13q0 72 -39.5 110.5t-112.5 38.5q-119 0 -190 -96l-216 61q37 121 152 198t262 77q187 0 296.5 -105t109.5 -266v-680h-250l-4 72q-109 -84 -244 -84q-158 0 -258 79.5t-100 239.5zM190 1171l244 426h191l233 -426h-229l-103 193l-108 -193 h-228zM334 311q0 -38 26.5 -61t102.5 -23q127 0 201 78v133l-207 -12q-123 -6 -123 -115z" />
<glyph unicode="&#xe3;" horiz-adv-x="1048" d="M70 307q0 303 383 328l211 14v13q0 72 -39.5 110.5t-112.5 38.5q-119 0 -190 -96l-216 61q37 121 152 198t262 77q187 0 296.5 -105t109.5 -266v-680h-250l-4 72q-109 -84 -244 -84q-158 0 -258 79.5t-100 239.5zM145 1217q57 282 236 282q48 0 135 -36t135 -36 q31 0 50 20.5t44 70.5l156 -33q-11 -62 -26.5 -109t-41 -88.5t-65.5 -63.5t-92 -22q-49 0 -138.5 35t-138.5 35q-34 0 -52.5 -22t-35.5 -68zM334 311q0 -38 26.5 -61t102.5 -23q127 0 201 78v133l-207 -12q-123 -6 -123 -115z" />
<glyph unicode="&#xe4;" horiz-adv-x="1048" d="M70 307q0 303 383 328l211 14v13q0 72 -39.5 110.5t-112.5 38.5q-119 0 -190 -96l-216 61q37 121 152 198t262 77q187 0 296.5 -105t109.5 -266v-680h-250l-4 72q-109 -84 -244 -84q-158 0 -258 79.5t-100 239.5zM154 1341q0 65 45 111.5t110 46.5q64 0 110 -46.5 t46 -111.5q0 -66 -45.5 -110.5t-110.5 -44.5q-66 0 -110.5 44.5t-44.5 110.5zM334 311q0 -38 26.5 -61t102.5 -23q127 0 201 78v133l-207 -12q-123 -6 -123 -115zM582 1341q0 65 44.5 111.5t108.5 46.5q66 0 112 -46.5t46 -111.5q0 -66 -46 -110.5t-112 -44.5 q-65 0 -109 44.5t-44 110.5z" />
<glyph unicode="&#xe5;" horiz-adv-x="1048" d="M70 307q0 303 383 328l211 14v13q0 72 -39.5 110.5t-112.5 38.5q-119 0 -190 -96l-216 61q37 121 152 198t262 77q187 0 296.5 -105t109.5 -266v-680h-250l-4 72q-109 -84 -244 -84q-158 0 -258 79.5t-100 239.5zM334 311q0 -38 26.5 -61t102.5 -23q127 0 201 78v133 l-207 -12q-123 -6 -123 -115zM334 1341q0 78 55 134.5t133 56.5q79 0 135 -56.5t56 -134.5t-56 -134t-135 -56q-78 0 -133 56t-55 134z" />
<glyph unicode="&#xe6;" horiz-adv-x="1665" d="M70 307q0 153 98.5 235.5t284.5 94.5l211 12v13q0 72 -39.5 110.5t-112.5 38.5q-119 0 -190 -96l-216 61q37 121 152.5 198t263.5 77q177 0 295 -109q121 109 318 109q86 0 165 -27t146.5 -82t108 -152.5t40.5 -226.5v-84l-667 -28q24 -224 207 -224q132 0 208 127 l230 -59q-27 -99 -93.5 -170t-152.5 -104t-182 -33q-101 0 -196.5 34t-157.5 95q-131 -129 -336 -129q-112 0 -196 32t-136.5 105t-52.5 182zM334 311q0 -38 26.5 -61t102.5 -23q58 0 107.5 15t93.5 63v133l-207 -12q-123 -6 -123 -115zM938 659l379 17q-31 135 -189 135 q-63 0 -114.5 -35t-75.5 -117z" />
<glyph unicode="&#xe7;" horiz-adv-x="1013" d="M70 518q0 114 26.5 205.5t71 151.5t106 100.5t129 58t142.5 17.5q145 0 252 -77.5t147 -221.5l-229 -62q-65 121 -176 121q-39 0 -71.5 -12t-64.5 -42t-50.5 -91t-18.5 -148q0 -86 18.5 -146.5t50 -90.5t64 -42t70.5 -12q113 0 178 127l229 -59q-40 -146 -144.5 -226.5 t-256.5 -80.5q-75 0 -142.5 17.5t-128.5 57.5t-105.5 100t-70.5 151t-26 204zM313 -258q120 -55 183 -55q26 0 40.5 15.5t14.5 41.5q0 57 -70 63l-98 9l47 184h174l-18 -76q37 -3 69 -13t62 -29t47.5 -52t17.5 -78q0 -98 -75.5 -156.5t-182.5 -58.5t-211 49v156z" />
<glyph unicode="&#xe8;" horiz-adv-x="1077" d="M70 516q0 114 27 206t71.5 152.5t106 101t127 58t137.5 17.5t138 -17.5t127 -58t105.5 -100.5t71.5 -152t27 -205v-88h-668q27 -203 203 -203q135 0 211 127l229 -59q-40 -146 -158 -226.5t-276 -80.5q-97 0 -180 29t-151.5 89t-108 165t-39.5 245zM270 1597h295 l242 -426h-221zM346 639h381q-38 172 -188 172q-152 0 -193 -172z" />
<glyph unicode="&#xe9;" horiz-adv-x="1077" d="M70 516q0 114 27 206t71.5 152.5t106 101t127 58t137.5 17.5t138 -17.5t127 -58t105.5 -100.5t71.5 -152t27 -205v-88h-668q27 -203 203 -203q135 0 211 127l229 -59q-40 -146 -158 -226.5t-276 -80.5q-97 0 -180 29t-151.5 89t-108 165t-39.5 245zM268 1171l244 426h295 l-318 -426h-221zM346 639h381q-38 172 -188 172q-152 0 -193 -172z" />
<glyph unicode="&#xea;" horiz-adv-x="1077" d="M70 516q0 114 27 206t71.5 152.5t106 101t127 58t137.5 17.5t138 -17.5t127 -58t105.5 -100.5t71.5 -152t27 -205v-88h-668q27 -203 203 -203q135 0 211 127l229 -59q-40 -146 -158 -226.5t-276 -80.5q-97 0 -180 29t-151.5 89t-108 165t-39.5 245zM205 1171l244 426h190 l233 -426h-229l-102 193l-109 -193h-227zM346 639h381q-38 172 -188 172q-152 0 -193 -172z" />
<glyph unicode="&#xeb;" horiz-adv-x="1077" d="M70 516q0 114 27 206t71.5 152.5t106 101t127 58t137.5 17.5t138 -17.5t127 -58t105.5 -100.5t71.5 -152t27 -205v-88h-668q27 -203 203 -203q135 0 211 127l229 -59q-40 -146 -158 -226.5t-276 -80.5q-97 0 -180 29t-151.5 89t-108 165t-39.5 245zM168 1341 q0 65 45.5 111.5t110.5 46.5q64 0 109.5 -46.5t45.5 -111.5q0 -66 -45 -110.5t-110 -44.5q-66 0 -111 44.5t-45 110.5zM346 639h381q-38 172 -188 172q-152 0 -193 -172zM596 1341q0 65 45 111.5t109 46.5q66 0 111.5 -46.5t45.5 -111.5q0 -66 -45.5 -110.5t-111.5 -44.5 q-65 0 -109.5 44.5t-44.5 110.5z" />
<glyph unicode="&#xec;" horiz-adv-x="772" d="M70 0v231h198v576h-198v231h460v-807h201v-231h-661zM76 1597h295l241 -426h-221z" />
<glyph unicode="&#xed;" horiz-adv-x="772" d="M70 0v231h198v576h-198v231h460v-807h201v-231h-661zM117 1171l243 426h295l-317 -426h-221z" />
<glyph unicode="&#xee;" horiz-adv-x="772" d="M51 1171l244 426h190l234 -426h-230l-102 193l-108 -193h-228zM70 0v231h198v576h-198v231h460v-807h201v-231h-661z" />
<glyph unicode="&#xef;" horiz-adv-x="772" d="M16 1341q0 65 45.5 111.5t110.5 46.5q64 0 110 -46.5t46 -111.5q0 -66 -45.5 -110.5t-110.5 -44.5q-66 0 -111 44.5t-45 110.5zM70 0v231h198v576h-198v231h460v-807h201v-231h-661zM444 1341q0 65 45 111.5t109 46.5q66 0 112 -46.5t46 -111.5q0 -66 -46 -110.5 t-112 -44.5q-65 0 -109.5 44.5t-44.5 110.5z" />
<glyph unicode="&#xf0;" horiz-adv-x="1073" d="M70 518q0 133 35.5 235.5t97 163.5t135.5 93.5t160 38.5l-60 92l-196 -60l-58 201l135 39l-135 209h301l88 -133l244 73l55 -198l-180 -55l174 -259q138 -212 138 -440q0 -113 -26.5 -204t-70.5 -151t-104.5 -100t-126 -57.5t-137.5 -17.5q-92 0 -172.5 29t-148.5 89 t-108 166t-40 246zM334 518q0 -86 18.5 -146.5t50.5 -90.5t64.5 -42t71.5 -12t71 12t63 42t48.5 90.5t17.5 146.5q0 293 -200 293q-39 0 -71.5 -12t-64.5 -42t-50.5 -91t-18.5 -148z" />
<glyph unicode="&#xf1;" horiz-adv-x="1103" d="M135 0v1038h250l4 -71q99 84 207 84q52 0 102 -14t100 -47t87.5 -82t60.5 -125.5t23 -170.5v-612h-262v596q0 63 -13 108t-35.5 67t-45 31t-48.5 9q-58 0 -105 -44t-63 -144v-623h-262zM174 1217q57 282 236 282q48 0 135 -36t135 -36q31 0 50 20.5t44 70.5l156 -33 q-11 -62 -26.5 -109t-41 -88.5t-65.5 -63.5t-92 -22q-49 0 -138.5 35t-138.5 35q-34 0 -52.5 -22t-35.5 -68z" />
<glyph unicode="&#xf2;" horiz-adv-x="1073" d="M70 518q0 113 27 205t71.5 152t105.5 100.5t127 58t138 17.5q71 0 136.5 -17.5t126 -58t105 -100.5t71 -152t26.5 -205t-26.5 -204t-70.5 -151t-104.5 -100t-126 -57.5t-137.5 -17.5q-92 0 -172.5 29t-148.5 89t-108 166t-40 246zM268 1597h295l242 -426h-221zM334 518 q0 -86 18.5 -146.5t50.5 -90.5t64.5 -42t71.5 -12t71 12t63 42t48.5 90.5t17.5 146.5q0 293 -200 293q-39 0 -71.5 -12t-64.5 -42t-50.5 -91t-18.5 -148z" />
<glyph unicode="&#xf3;" horiz-adv-x="1073" d="M70 518q0 113 27 205t71.5 152t105.5 100.5t127 58t138 17.5q71 0 136.5 -17.5t126 -58t105 -100.5t71 -152t26.5 -205t-26.5 -204t-70.5 -151t-104.5 -100t-126 -57.5t-137.5 -17.5q-92 0 -172.5 29t-148.5 89t-108 166t-40 246zM266 1171l244 426h295l-318 -426h-221z M334 518q0 -86 18.5 -146.5t50.5 -90.5t64.5 -42t71.5 -12t71 12t63 42t48.5 90.5t17.5 146.5q0 293 -200 293q-39 0 -71.5 -12t-64.5 -42t-50.5 -91t-18.5 -148z" />
<glyph unicode="&#xf4;" horiz-adv-x="1073" d="M70 518q0 113 27 205t71.5 152t105.5 100.5t127 58t138 17.5q71 0 136.5 -17.5t126 -58t105 -100.5t71 -152t26.5 -205t-26.5 -204t-70.5 -151t-104.5 -100t-126 -57.5t-137.5 -17.5q-92 0 -172.5 29t-148.5 89t-108 166t-40 246zM203 1171l243 426h191l233 -426h-229 l-102 193l-109 -193h-227zM334 518q0 -86 18.5 -146.5t50.5 -90.5t64.5 -42t71.5 -12t71 12t63 42t48.5 90.5t17.5 146.5q0 293 -200 293q-39 0 -71.5 -12t-64.5 -42t-50.5 -91t-18.5 -148z" />
<glyph unicode="&#xf5;" horiz-adv-x="1073" d="M70 518q0 113 27 205t71.5 152t105.5 100.5t127 58t138 17.5q71 0 136.5 -17.5t126 -58t105 -100.5t71 -152t26.5 -205t-26.5 -204t-70.5 -151t-104.5 -100t-126 -57.5t-137.5 -17.5q-92 0 -172.5 29t-148.5 89t-108 166t-40 246zM158 1217q57 282 235 282 q48 0 135.5 -36t135.5 -36q31 0 50 20.5t44 70.5l155 -33q-11 -62 -26.5 -109t-41 -88.5t-65.5 -63.5t-92 -22q-49 0 -138 35t-138 35q-34 0 -52.5 -22t-35.5 -68zM334 518q0 -86 18.5 -146.5t50.5 -90.5t64.5 -42t71.5 -12t71 12t63 42t48.5 90.5t17.5 146.5 q0 293 -200 293q-39 0 -71.5 -12t-64.5 -42t-50.5 -91t-18.5 -148z" />
<glyph unicode="&#xf6;" horiz-adv-x="1073" d="M70 518q0 113 27 205t71.5 152t105.5 100.5t127 58t138 17.5q71 0 136.5 -17.5t126 -58t105 -100.5t71 -152t26.5 -205t-26.5 -204t-70.5 -151t-104.5 -100t-126 -57.5t-137.5 -17.5q-92 0 -172.5 29t-148.5 89t-108 166t-40 246zM166 1341q0 65 45.5 111.5t110.5 46.5 q64 0 109.5 -46.5t45.5 -111.5q0 -66 -45 -110.5t-110 -44.5q-66 0 -111 44.5t-45 110.5zM334 518q0 -86 18.5 -146.5t50.5 -90.5t64.5 -42t71.5 -12t71 12t63 42t48.5 90.5t17.5 146.5q0 293 -200 293q-39 0 -71.5 -12t-64.5 -42t-50.5 -91t-18.5 -148zM594 1341 q0 65 45 111.5t109 46.5q66 0 111.5 -46.5t45.5 -111.5q0 -66 -45.5 -110.5t-111.5 -44.5q-65 0 -109.5 44.5t-44.5 110.5z" />
<glyph unicode="&#xf7;" horiz-adv-x="1167" d="M96 539v229h975v-229h-975zM428 324q0 65 46 111t112 46q64 0 110.5 -46.5t46.5 -110.5q0 -66 -46 -112t-111 -46q-66 0 -112 46t-46 112zM428 983q0 65 46 111.5t112 46.5q64 0 110.5 -46.5t46.5 -111.5q0 -66 -46 -112t-111 -46q-66 0 -112 46t-46 112z" />
<glyph unicode="&#xf8;" horiz-adv-x="1073" d="M70 518q0 113 27 205t71.5 152t105.5 100.5t127 58t138 17.5q104 0 192 -39l70 112l172 -98l-84 -131q115 -141 115 -377q0 -113 -26.5 -204t-70.5 -151t-104.5 -100t-126 -57.5t-137.5 -17.5q-103 0 -193 35l-76 -121l-168 102l84 135q-116 135 -116 379zM334 518 q0 -74 12 -123l254 408q-27 8 -61 8q-39 0 -71.5 -12t-64.5 -42t-50.5 -91t-18.5 -148zM477 236q30 -9 62 -9q39 0 71 12t63 42t48.5 90.5t17.5 146.5q0 68 -12 117z" />
<glyph unicode="&#xf9;" horiz-adv-x="1124" d="M135 426v625h262v-609q0 -215 146 -215q62 0 114.5 43t69.5 146v622h262v-1038h-250l-4 72q-41 -41 -102.5 -62.5t-124.5 -21.5q-52 0 -102 14t-100 47t-87.5 81.5t-60.5 125t-23 170.5zM293 1597h295l241 -426h-221z" />
<glyph unicode="&#xfa;" horiz-adv-x="1124" d="M135 426v625h262v-609q0 -215 146 -215q62 0 114.5 43t69.5 146v622h262v-1038h-250l-4 72q-41 -41 -102.5 -62.5t-124.5 -21.5q-52 0 -102 14t-100 47t-87.5 81.5t-60.5 125t-23 170.5zM293 1171l244 426h294l-317 -426h-221z" />
<glyph unicode="&#xfb;" horiz-adv-x="1124" d="M135 426v625h262v-609q0 -215 146 -215q62 0 114.5 43t69.5 146v622h262v-1038h-250l-4 72q-41 -41 -102.5 -62.5t-124.5 -21.5q-52 0 -102 14t-100 47t-87.5 81.5t-60.5 125t-23 170.5zM227 1171l244 426h191l233 -426h-229l-103 193l-108 -193h-228z" />
<glyph unicode="&#xfc;" horiz-adv-x="1124" d="M135 426v625h262v-609q0 -215 146 -215q62 0 114.5 43t69.5 146v622h262v-1038h-250l-4 72q-41 -41 -102.5 -62.5t-124.5 -21.5q-52 0 -102 14t-100 47t-87.5 81.5t-60.5 125t-23 170.5zM193 1341q0 65 45 111.5t110 46.5q64 0 110 -46.5t46 -111.5q0 -66 -45.5 -110.5 t-110.5 -44.5q-66 0 -110.5 44.5t-44.5 110.5zM621 1341q0 65 44.5 111.5t108.5 46.5q66 0 112 -46.5t46 -111.5q0 -66 -46 -110.5t-112 -44.5q-65 0 -109 44.5t-44 110.5z" />
<glyph unicode="&#xfd;" horiz-adv-x="989" d="M4 1038h283l207 -626l208 626h283l-532 -1458h-267l172 486zM225 1171l244 426h295l-318 -426h-221z" />
<glyph unicode="&#xfe;" horiz-adv-x="1138" d="M135 -420v1878h262v-477q87 70 209 70q68 0 132.5 -17.5t125 -58t105.5 -100t72.5 -151t27.5 -204.5t-27.5 -205t-72.5 -151.5t-105.5 -100t-124 -58t-131.5 -17.5q-112 0 -211 73v-481h-262zM397 477q9 -71 31 -122.5t52 -78t60 -38t62 -11.5q39 0 71.5 12t64 42 t49.5 90.5t18 146.5q0 87 -18 148t-49.5 91t-63.5 42t-70 12q-35 0 -65.5 -10t-60 -32.5t-51 -64.5t-30.5 -100v-127z" />
<glyph unicode="&#xff;" horiz-adv-x="989" d="M4 1038h283l207 -626l208 626h283l-532 -1458h-267l172 486zM125 1341q0 65 45.5 111.5t110.5 46.5q64 0 109.5 -46.5t45.5 -111.5q0 -66 -45 -110.5t-110 -44.5q-66 0 -111 44.5t-45 110.5zM553 1341q0 65 45 111.5t109 46.5q66 0 111.5 -46.5t45.5 -111.5 q0 -66 -45.5 -110.5t-111.5 -44.5q-65 0 -109.5 44.5t-44.5 110.5z" />
<glyph unicode="&#x152;" horiz-adv-x="1996" d="M102 729q0 158 34 285.5t90 211t133 140t158.5 80.5t170.5 24q169 0 311 -90v78h936v-248h-663v-352h485v-248h-485v-362h663v-248h-936v80q-140 -92 -311 -92q-89 0 -170.5 24t-158.5 80.5t-133 140t-90 211t-34 285.5zM379 729q0 -118 19 -207.5t48.5 -142t72 -85.5 t83 -44.5t86.5 -11.5q45 0 84.5 11t81.5 42t72 80t50.5 133t22.5 194v31q0 118 -19 207.5t-49.5 142.5t-73 86t-83 44.5t-86.5 11.5t-86.5 -11.5t-82.5 -44.5t-72 -86t-49 -142.5t-19 -207.5z" />
<glyph unicode="&#x153;" horiz-adv-x="1742" d="M70 518q0 113 27 205t71.5 152t105.5 100.5t127 58t138 17.5q204 0 331 -133q127 133 334 133q72 0 138 -17.5t127 -58t105.5 -100.5t71.5 -152t27 -205v-88h-667q27 -203 202 -203q135 0 211 127l230 -59q-40 -146 -158.5 -226.5t-276.5 -80.5q-218 0 -346 131 q-125 -131 -329 -131q-92 0 -172.5 29t-148.5 89t-108 166t-40 246zM334 518q0 -86 18.5 -146.5t50.5 -90.5t64.5 -42t71.5 -12t71 12t63 42t48.5 90.5t17.5 146.5q0 293 -200 293q-39 0 -71.5 -12t-64.5 -42t-50.5 -91t-18.5 -148zM1012 639h381q-38 172 -189 172 t-192 -172z" />
<glyph unicode="&#x178;" horiz-adv-x="1159" d="M4 1458h289l287 -567l286 567h289l-440 -895v-563h-273v563zM209 1761q0 65 45.5 111.5t110.5 46.5q64 0 109.5 -46.5t45.5 -111.5q0 -66 -45 -110.5t-110 -44.5q-66 0 -111 44.5t-45 110.5zM637 1761q0 65 45 111.5t109 46.5q66 0 111.5 -46.5t45.5 -111.5 q0 -66 -45.5 -110.5t-111.5 -44.5q-65 0 -109.5 44.5t-44.5 110.5z" />
<glyph unicode="&#x2c6;" horiz-adv-x="430" d="M-119 1171l244 426h190l234 -426h-230l-102 193l-108 -193h-228z" />
<glyph unicode="&#x2dc;" horiz-adv-x="788" d="M10 1217q57 282 236 282q48 0 135 -36t135 -36q31 0 50 20.5t44 70.5l156 -33q-11 -62 -26.5 -109t-41 -88.5t-65.5 -63.5t-92 -22q-49 0 -138.5 35t-138.5 35q-34 0 -52.5 -22t-35.5 -68z" />
<glyph unicode="&#x2000;" horiz-adv-x="1008" />
<glyph unicode="&#x2001;" horiz-adv-x="2017" />
<glyph unicode="&#x2002;" horiz-adv-x="1008" />
<glyph unicode="&#x2003;" horiz-adv-x="2017" />
<glyph unicode="&#x2004;" horiz-adv-x="672" />
<glyph unicode="&#x2005;" horiz-adv-x="504" />
<glyph unicode="&#x2006;" horiz-adv-x="336" />
<glyph unicode="&#x2007;" horiz-adv-x="336" />
<glyph unicode="&#x2008;" horiz-adv-x="252" />
<glyph unicode="&#x2009;" horiz-adv-x="403" />
<glyph unicode="&#x200a;" horiz-adv-x="112" />
<glyph unicode="&#x2010;" horiz-adv-x="892" d="M109 461v229h675v-229h-675z" />
<glyph unicode="&#x2011;" horiz-adv-x="892" d="M109 461v229h675v-229h-675z" />
<glyph unicode="&#x2012;" horiz-adv-x="892" d="M109 461v229h675v-229h-675z" />
<glyph unicode="&#x2013;" horiz-adv-x="1062" d="M0 461v229h1063v-229h-1063z" />
<glyph unicode="&#x2014;" horiz-adv-x="1996" d="M0 461v229h1997v-229h-1997z" />
<glyph unicode="&#x2018;" horiz-adv-x="593" d="M141 1098q0 44 23 100l106 275h174l-55 -240q64 -45 64 -131q0 -65 -45.5 -111.5t-110.5 -46.5q-64 0 -110 46t-46 108z" />
<glyph unicode="&#x2019;" horiz-adv-x="593" d="M141 1315q0 65 45.5 111.5t110.5 46.5q64 0 110 -46t46 -108q0 -44 -23 -100l-106 -275h-174l55 240q-64 45 -64 131z" />
<glyph unicode="&#x201a;" horiz-adv-x="593" d="M141 152q0 65 45 111t111 46q64 0 110 -45.5t46 -107.5q0 -45 -23 -101l-106 -274h-174l55 239q-64 45 -64 132z" />
<glyph unicode="&#x201c;" horiz-adv-x="821" d="M78 1098q0 47 22 100l107 275h174l-55 -240q63 -45 63 -131q0 -65 -45.5 -111.5t-110.5 -46.5q-64 0 -109.5 46t-45.5 108zM432 1098q0 44 23 100l106 275h174l-55 -240q63 -45 63 -131q0 -65 -45 -111.5t-110 -46.5q-64 0 -110 46t-46 108z" />
<glyph unicode="&#x201d;" horiz-adv-x="821" d="M78 1315q0 65 45 111.5t110 46.5q64 0 110 -46t46 -108q0 -47 -22 -100l-107 -275h-174l55 240q-63 45 -63 131zM432 1315q0 65 45.5 111.5t110.5 46.5q64 0 109.5 -46t45.5 -108q0 -47 -22 -100l-107 -275h-174l56 240q-64 45 -64 131z" />
<glyph unicode="&#x201e;" horiz-adv-x="821" d="M78 152q0 65 45 111t110 46q64 0 110 -45.5t46 -107.5q0 -48 -22 -101l-107 -274h-174l55 239q-63 45 -63 132zM432 152q0 65 45 111t111 46q64 0 109.5 -45.5t45.5 -107.5q0 -48 -22 -101l-107 -274h-174l56 239q-64 45 -64 132z" />
<glyph unicode="&#x2022;" horiz-adv-x="1028" d="M147 729q0 151 107.5 259t259.5 108q151 0 259 -108t108 -259t-108 -259t-259 -108q-152 0 -259.5 108t-107.5 259z" />
<glyph unicode="&#x2026;" horiz-adv-x="2050" d="M238 152q0 65 45 111t110 46q66 0 112 -46t46 -111q0 -66 -46 -111t-112 -45t-110.5 45t-44.5 111zM868 152q0 65 45 111t111 46q64 0 110 -46t46 -111q0 -66 -45.5 -111t-110.5 -45q-66 0 -111 45t-45 111zM1501 152q0 65 45 111t111 46q64 0 109.5 -46t45.5 -111 q0 -66 -45 -111t-110 -45q-66 0 -111 45t-45 111z" />
<glyph unicode="&#x202f;" horiz-adv-x="403" />
<glyph unicode="&#x2039;" horiz-adv-x="731" d="M94 567l467 441l76 -201l-227 -240l225 -239l-74 -201z" />
<glyph unicode="&#x203a;" horiz-adv-x="731" d="M94 807l76 201l467 -441l-467 -440l-74 201l226 239z" />
<glyph unicode="&#x205f;" horiz-adv-x="504" />
<glyph unicode="&#x20ac;" horiz-adv-x="1257" d="M31 492l26 182h127v55q0 45 2 68h-127l27 182h121q26 129 79.5 227t122.5 154t144.5 83t155.5 27q153 0 281 -104t196 -328l-234 -65q-74 248 -243 248q-75 0 -137 -54.5t-93 -187.5h389l-26 -182h-387v-68v-55h374l-26 -182h-328q31 -140 95 -197t141 -57q165 0 239 237 l238 -53q-36 -117 -89.5 -203t-117.5 -135.5t-131.5 -72.5t-140.5 -23q-81 0 -157 28t-146 85.5t-123 158t-78 232.5h-174z" />
<glyph unicode="&#x2122;" horiz-adv-x="1333" d="M82 1313v157h489v-157h-165v-494h-158v494h-166zM635 819v651h162l114 -217l117 217h150v-651h-158v338l-76 -149h-70l-81 149v-338h-158z" />
<glyph unicode="&#x25fc;" horiz-adv-x="1034" d="M0 0v1034h1034v-1034h-1034z" />
</font>
</defs>
</svg>
